<svg enable-background="new 0 0 512 512" height="512" viewBox="0 0 512 512" width="512" xmlns="http://www.w3.org/2000/svg"><g><path d="m509.417 328.901c-22.94-25.365-60.746-30.827-89.958-12.945l-54.593 33.999c-9.362-28.598-35.985-48.715-66.667-49.123l-55.501-1.129c-31.414-18.437-71.773-11.263-94.98 17.292-5.98 7.358-10.887 14.307-14.644 20.732h-14.238v-7.53c0-5.523-4.478-10-10-10h-98.836c-5.522 0-10 4.477-10 10v118.122c0 5.523 4.478 10 10 10h98.836c5.522 0 10-4.477 10-10v-12.799l137.289 30.143c9.323 2.09 18.796 3.117 28.224 3.117 23.791-.001 47.269-6.548 67.147-19.091.771-.487 85.322-57.805 156.115-105.803 2.396-1.625 3.971-4.207 4.316-7.081.347-2.874-.569-5.757-2.51-7.904zm-410.581 109.418h-78.836v-98.122h78.836zm241.892-5.486c-23.301 14.667-52.536 19.521-80.271 13.303l-141.62-31.094v-57.316h20.17c3.777 0 7.232-2.128 8.932-5.502 3.33-6.613 8.478-14.222 15.3-22.616 17.402-21.41 47.994-26.375 71.156-11.542 1.552.993 3.348 1.539 5.189 1.576l58.28 1.185c21.992.292 41.059 14.621 47.891 35.033h-120.952c-5.522 0-10 4.477-10 10s4.478 10 10 10h133.437c1.869 0 3.7-.523 5.286-1.512l66.439-41.376c17.535-10.732 39.433-9.729 55.775 1.577-54.234 36.772-141.613 96.007-145.012 98.284z"/><path d="m68.203 391.044c-5.522 0-10 4.477-10 10v7.347c0 5.523 4.478 10 10 10s10-4.477 10-10v-7.347c0-5.523-4.477-10-10-10z"/><path d="m369.851 302.199c71.401 0 129.49-58.089 129.49-129.489s-58.089-129.489-129.49-129.489c-71.4 0-129.489 58.089-129.489 129.489s58.088 129.489 129.489 129.489zm0-238.978c60.373 0 109.49 49.117 109.49 109.489s-49.117 109.489-109.49 109.489-109.49-49.117-109.49-109.489 49.117-109.489 109.49-109.489z"/><path d="m338.151 220.364h-3.618c-5.522 0-10 4.477-10 10s4.478 10 10 10h3.618v2.986c0 5.523 4.478 10 10 10s10-4.477 10-10v-3.028c2.216-.009 4.658-.019 7.169-.029v3.057c0 5.523 4.478 10 10 10s10-4.477 10-10v-3.12c.648-.001 1.227-.001 1.727-.001 22.433 0 40.683-18.25 40.683-40.684 0-14.22-7.334-26.76-18.418-34.036 5.112-6.247 8.183-14.226 8.183-22.909 0-18.606-14.099-33.98-32.174-36.003v-3.212c0-5.523-4.478-10-10-10s-10 4.477-10 10v2.986h-7.169v-2.986c0-5.523-4.478-10-10-10s-10 4.477-10 10v2.986h-3.618c-5.522 0-10 4.477-10 10s4.478 10 10 10h3.618v93.993zm48.896-.136c-5.245 0-19.201.053-28.896.093v-41.417c3.437-.014 7.352-.03 11.044-.042h17.852c11.404 0 20.683 9.278 20.683 20.683s-9.279 20.683-20.683 20.683zm10.447-77.628c0 8.949-7.281 16.23-16.23 16.23-2.435 0-7.046.013-12.073.031h-11.039v-32.491h23.112c8.949.001 16.23 7.282 16.23 16.23z"/></g></svg>