<svg version="1.1" xmlns="http://www.w3.org/2000/svg" x="0px" y="0px" viewBox="0 0 512 512">
	<path d="M313.583,134.372H87.111c-4.808,0-8.711,3.896-8.711,8.711c0,4.808,3.896,8.711,8.711,8.711h226.472
			c4.808,0,8.711-3.902,8.711-8.711C322.294,138.268,318.391,134.372,313.583,134.372z"/>
	<path d="M272.935,192.442H87.111c-4.808,0-8.711,3.896-8.711,8.711c0,4.808,3.896,8.711,8.711,8.711h185.824
			c4.808,0,8.711-3.903,8.711-8.711C281.645,196.338,277.743,192.442,272.935,192.442z"/>
	<path d="M180.022,250.511H87.111c-4.808,0-8.711,3.896-8.711,8.711c0,4.808,3.902,8.711,8.711,8.711h92.911
			c4.808,0,8.711-3.903,8.711-8.711C188.733,254.409,184.83,250.511,180.022,250.511z"/>
	<path d="M508.611,163.831l-35.771-35.765c-0.749-0.749-1.591-1.324-2.474-1.823V79.206c0-12.775-10.452-23.228-23.228-23.228
			H23.228C10.452,55.978,0,66.43,0,79.206v278.735c0,12.775,10.452,23.228,23.228,23.228h182.078
			c-2.282,3.624-4.251,7.497-5.308,10.662l-18.751,56.252c-1.62,4.854,0.174,7.939,4.07,7.939c0.964,0,2.062-0.192,3.269-0.593
			l56.252-18.751c6.057-2.021,14.715-7.369,19.233-11.881l43.634-43.627h139.437c12.775,0,23.228-10.452,23.228-23.228V218.498
			l38.244-38.245C513.129,175.741,513.129,168.349,508.611,163.831z M23.233,363.748c-3.147,0-5.807-2.66-5.807-5.807V79.206
			c0-3.147,2.66-5.807,5.807-5.807h423.91c3.147,0,5.807,2.66,5.807,5.807v52.333l-13.472,13.472l-7.445-7.45
			c-3.96-3.96-9.209-5.947-14.372-5.935c-5.168-0.006-10.418,1.98-14.378,5.947l-70.073,70.067c-3.403,3.403-3.403,8.919,0,12.317
			c3.403,3.403,8.914,3.403,12.317,0l70.079-70.079c0.557-0.557,1.26-0.831,2.056-0.836c0.79,0.006,1.492,0.279,2.056,0.836
			l7.445,7.445L220.735,363.748H23.233z M239.335,420.146l-34.209,11.405l11.4-34.221c0.715-2.137,2.416-5.273,4.233-7.996
			l26.572,26.572C244.59,417.73,241.437,419.449,239.335,420.146z M260.142,404.09l-27.554-27.56L413.377,195.74l27.56,27.554
			L260.142,404.09z M452.952,357.941L452.952,357.941c0,3.147-2.66,5.807-5.807,5.807H325.128l127.824-127.829V357.941z
			 M453.253,210.977l-27.56-27.554l38.936-38.936l27.56,27.554L453.253,210.977z"/>
</svg>
