<svg width="18" height="18" viewBox="0 0 18 18" fill="none" xmlns="http://www.w3.org/2000/svg">
<path d="M10.6465 8.975L16.7012 15.0297C16.8639 15.1924 16.8639 15.3715 16.7012 15.5668L15.5781 16.6898C15.3828 16.8526 15.2038 16.8526 15.041 16.6898L14.0156 15.6156L8.98633 10.6352L2.93164 16.6898C2.76888 16.8526 2.58984 16.8526 2.39453 16.6898L1.27148 15.5668C1.10872 15.3715 1.10872 15.1924 1.27148 15.0297L7.32617 8.975L1.27148 2.92031C1.10872 2.75755 1.10872 2.57852 1.27148 2.3832L2.39453 1.26016C2.58984 1.0974 2.76888 1.0974 2.93164 1.26016L8.98633 7.31484L15.041 1.26016C15.2038 1.0974 15.3828 1.0974 15.5781 1.26016L16.7012 2.3832C16.8639 2.57852 16.8639 2.75755 16.7012 2.92031L15.627 3.9457L10.6465 8.975Z" fill="black"/>
</svg>
