<svg width="22" height="22" viewBox="0 0 22 22" fill="none" xmlns="http://www.w3.org/2000/svg">
<path d="M19.2812 5.84375H2.71875C2.58854 5.84375 2.47135 5.80469 2.36719 5.72656C2.28906 5.6224 2.25 5.50521 2.25 5.375V4.125C2.25 3.99479 2.28906 3.89062 2.36719 3.8125C2.47135 3.70833 2.58854 3.65625 2.71875 3.65625H19.2812C19.4115 3.65625 19.5156 3.70833 19.5938 3.8125C19.6979 3.89062 19.75 3.99479 19.75 4.125V5.375C19.75 5.50521 19.6979 5.6224 19.5938 5.72656C19.5156 5.80469 19.4115 5.84375 19.2812 5.84375ZM19.2812 12.0938H2.71875C2.58854 12.0938 2.47135 12.0547 2.36719 11.9766C2.28906 11.8724 2.25 11.7552 2.25 11.625V10.375C2.25 10.2448 2.28906 10.1406 2.36719 10.0625C2.47135 9.95833 2.58854 9.90625 2.71875 9.90625H19.2812C19.4115 9.90625 19.5156 9.95833 19.5938 10.0625C19.6979 10.1406 19.75 10.2448 19.75 10.375V11.625C19.75 11.7552 19.6979 11.8724 19.5938 11.9766C19.5156 12.0547 19.4115 12.0938 19.2812 12.0938ZM19.2812 18.3438H2.71875C2.58854 18.3438 2.47135 18.3047 2.36719 18.2266C2.28906 18.1224 2.25 18.0052 2.25 17.875V16.625C2.25 16.4948 2.28906 16.3906 2.36719 16.3125C2.47135 16.2083 2.58854 16.1562 2.71875 16.1562H19.2812C19.4115 16.1562 19.5156 16.2083 19.5938 16.3125C19.6979 16.3906 19.75 16.4948 19.75 16.625V17.875C19.75 18.0052 19.6979 18.1224 19.5938 18.2266C19.5156 18.3047 19.4115 18.3438 19.2812 18.3438Z" fill="black"/>
</svg>
