<svg width="22" height="22" viewBox="0 0 22 22" fill="none" xmlns="http://www.w3.org/2000/svg">
<path d="M1 4.125V17.875C1 18.3958 1.18229 18.8385 1.54688 19.2031C1.91146 19.5677 2.35417 19.75 2.875 19.75H19.125C19.6458 19.75 20.0885 19.5677 20.4531 19.2031C20.8177 18.8385 21 18.3958 21 17.875V4.125C21 3.60417 20.8177 3.16146 20.4531 2.79688C20.0885 2.43229 19.6458 2.25 19.125 2.25H2.875C2.35417 2.25 1.91146 2.43229 1.54688 2.79688C1.18229 3.16146 1 3.60417 1 4.125ZM10.0625 4.125V10.0625H2.875V4.35938C2.875 4.30729 2.90104 4.25521 2.95312 4.20312C3.00521 4.15104 3.05729 4.125 3.10938 4.125H10.0625ZM2.875 11.9375H10.0625V17.875H3.10938C3.05729 17.875 3.00521 17.849 2.95312 17.7969C2.90104 17.7448 2.875 17.6927 2.875 17.6406V11.9375ZM11.9375 17.875V11.9375H19.125V17.6406C19.125 17.6927 19.099 17.7448 19.0469 17.7969C18.9948 17.849 18.9427 17.875 18.8906 17.875H11.9375ZM19.125 10.0625H11.9375V4.125H18.8906C18.9427 4.125 18.9948 4.15104 19.0469 4.20312C19.099 4.25521 19.125 4.30729 19.125 4.35938V10.0625Z" fill="black"/>
</svg>
