<svg width="22" height="22" viewBox="0 0 22 22" fill="none" xmlns="http://www.w3.org/2000/svg">
	<path d="M19.0469 3.36094C18.3698 2.76198 17.5885 2.38438 16.7031 2.22813C15.8177 2.07188 14.9323 2.13698 14.0469 2.42344C13.1875 2.7099 12.4323 3.19167 11.7812 3.86875L11 4.68906L10.2188 3.86875C9.67188 3.29583 8.99479 2.85313 8.1875 2.54063C7.30208 2.20208 6.42969 2.0849 5.57031 2.18906C4.60677 2.29323 3.72135 2.68385 2.91406 3.36094C2.13281 4.03802 1.58594 4.87135 1.27344 5.86094C0.960938 6.85052 0.908854 7.85313 1.11719 8.86875C1.35156 9.85833 1.83333 10.7307 2.5625 11.4859L10.1016 19.2594C10.362 19.5198 10.6615 19.65 11 19.65C11.3385 19.65 11.638 19.5198 11.8984 19.2594L19.4375 11.4469C20.1667 10.7177 20.6354 9.85833 20.8438 8.86875C21.0781 7.85313 21.0391 6.85052 20.7266 5.86094C20.4141 4.87135 19.8542 4.03802 19.0469 3.36094ZM18.5391 10.5875L11 18.4L3.46094 10.5875C2.9401 10.0667 2.57552 9.42865 2.36719 8.67344C2.1849 7.89219 2.19792 7.13698 2.40625 6.40781C2.64062 5.57448 3.08333 4.88438 3.73438 4.3375C4.41146 3.76458 5.15365 3.45208 5.96094 3.4C6.61198 3.34792 7.27604 3.47813 7.95312 3.79063C8.5 4.05104 8.95573 4.37656 9.32031 4.76719L11 6.48594L12.6797 4.76719C13.0182 4.37656 13.474 4.06406 14.0469 3.82969C14.724 3.51719 15.388 3.37396 16.0391 3.4C16.8464 3.45208 17.5755 3.76458 18.2266 4.3375C18.9036 4.88438 19.3594 5.57448 19.5938 6.40781C19.8021 7.13698 19.8021 7.89219 19.5938 8.67344C19.4115 9.42865 19.0599 10.0667 18.5391 10.5875Z" fill="black"/>
</svg>
