<svg width="22" height="22" viewBox="0 0 22 22" fill="none" xmlns="http://www.w3.org/2000/svg">
<path d="M18.8906 3.4C18.1615 2.775 17.3151 2.38438 16.3516 2.22813C15.388 2.07188 14.4245 2.15 13.4609 2.4625C12.5234 2.775 11.7031 3.28281 11 3.98594C10.2969 3.28281 9.46354 2.775 8.5 2.4625C7.5625 2.15 6.61198 2.07188 5.64844 2.22813C4.6849 2.38438 3.83854 2.775 3.10938 3.4C2.17188 4.20729 1.54688 5.17083 1.23438 6.29063C0.921875 7.30625 0.908854 8.34792 1.19531 9.41563C1.48177 10.4573 1.97656 11.3427 2.67969 12.0719L9.51562 19.025C9.93229 19.4417 10.4271 19.65 11 19.65C11.5729 19.65 12.0677 19.4417 12.4844 19.025L19.3203 12.0719C20.0234 11.3427 20.5182 10.4573 20.8047 9.41563C21.0911 8.34792 21.0911 7.30625 20.8047 6.29063C20.4661 5.17083 19.8281 4.20729 18.8906 3.4ZM17.9922 10.7438L11.1172 17.6969C11.0391 17.801 10.9609 17.801 10.8828 17.6969L4.00781 10.7438C3.53906 10.249 3.20052 9.65 2.99219 8.94688C2.8099 8.21771 2.82292 7.50156 3.03125 6.79844C3.23958 6.04323 3.66927 5.39219 4.32031 4.84531C5.07552 4.22031 5.96094 3.94688 6.97656 4.025C8.01823 4.10313 8.90365 4.51979 9.63281 5.275L11 6.64219L12.3672 5.275C13.0964 4.51979 13.9688 4.10313 14.9844 4.025C16.026 3.94688 16.9245 4.22031 17.6797 4.84531C18.3307 5.39219 18.7604 6.04323 18.9688 6.79844C19.1771 7.50156 19.1771 8.21771 18.9688 8.94688C18.7865 9.65 18.4609 10.249 17.9922 10.7438Z" fill="black"/>
</svg>
