<svg width="22" height="22" viewBox="0 0 22 22" fill="none" xmlns="http://www.w3.org/2000/svg">
<path d="M21.779 10.6767L12.369 2.94569C11.9843 2.62539 11.4995 2.45 10.999 2.45C10.4984 2.45 10.0136 2.62539 9.62892 2.94569L0.218899 10.6767C0.157352 10.7282 0.106553 10.7913 0.0694048 10.8625C0.0322563 10.9336 0.00948516 11.0114 0.00239165 11.0913C-0.00470186 11.1712 0.00402122 11.2518 0.0280628 11.3284C0.0521044 11.405 0.0909935 11.476 0.14251 11.5376L0.533623 12.0074C0.637642 12.1316 0.786713 12.2094 0.948074 12.2237C1.10943 12.238 1.26988 12.1877 1.39415 12.0838L2.44336 11.2221V18.3381C2.44426 18.662 2.57333 18.9724 2.80234 19.2014C3.03136 19.4304 3.34171 19.5595 3.66559 19.5604H8.55451C8.87838 19.5595 9.18873 19.4304 9.41775 19.2014C9.64677 18.9724 9.77583 18.662 9.77674 18.3381V14.3659H12.2212V18.3381C12.2221 18.662 12.3512 18.9724 12.5802 19.2014C12.8092 19.4304 13.1195 19.5595 13.4434 19.5604H18.3323C18.6547 19.5597 18.9638 19.4319 19.1926 19.2049C19.4214 18.9778 19.5515 18.6697 19.5546 18.3473V11.2213L20.6061 12.0853C20.7303 12.1892 20.8908 12.2395 21.0521 12.2252C21.2135 12.2109 21.3626 12.1331 21.4666 12.0089L21.8573 11.5395C21.909 11.4778 21.948 11.4065 21.9721 11.3296C21.9961 11.2528 22.0048 11.172 21.9975 11.0918C21.9902 11.0116 21.9672 10.9337 21.9297 10.8624C21.8922 10.7912 21.841 10.7281 21.779 10.6767V10.6767ZM17.7155 17.727H14.0545V13.7548C14.0536 13.4309 13.9246 13.1206 13.6956 12.8915C13.4665 12.6625 13.1562 12.5335 12.8323 12.5326H9.16562C8.84174 12.5335 8.53139 12.6625 8.30238 12.8915C8.07336 13.1206 7.9443 13.4309 7.94339 13.7548V17.727H4.2767V9.71646L10.999 4.19274L17.7212 9.71417L17.7155 17.727Z" fill="black"/>
</svg>
