<svg width="22" height="22" viewBox="0 0 22 22" fill="none" xmlns="http://www.w3.org/2000/svg">
<path d="M15.95 6H19.7V17.875C19.7 18.7344 19.3875 19.4635 18.7625 20.0625C18.1635 20.6875 17.4344 21 16.575 21H5.325C4.46563 21 3.72344 20.6875 3.09844 20.0625C2.49948 19.4635 2.2 18.7344 2.2 17.875V6H5.95C5.95 4.61979 6.43177 3.44792 7.39531 2.48438C8.3849 1.49479 9.56979 1 10.95 1C12.3302 1 13.5021 1.49479 14.4656 2.48438C15.4552 3.44792 15.95 4.61979 15.95 6ZM13.6063 3.34375C12.8771 2.61458 11.9917 2.25 10.95 2.25C9.90833 2.25 9.02292 2.61458 8.29375 3.34375C7.56458 4.07292 7.2 4.95833 7.2 6H14.7C14.7 4.95833 14.3354 4.07292 13.6063 3.34375ZM18.45 17.875V7.25H15.95V9.125C15.95 9.30729 15.8849 9.46354 15.7547 9.59375C15.6505 9.69792 15.5073 9.75 15.325 9.75C15.1427 9.75 14.9865 9.69792 14.8563 9.59375C14.7521 9.46354 14.7 9.30729 14.7 9.125V7.25H7.2V9.125C7.2 9.30729 7.1349 9.46354 7.00469 9.59375C6.90052 9.69792 6.75729 9.75 6.575 9.75C6.39271 9.75 6.23646 9.69792 6.10625 9.59375C6.00208 9.46354 5.95 9.30729 5.95 9.125V7.25H3.45V17.875C3.45 18.3958 3.63229 18.8385 3.99688 19.2031C4.36146 19.5677 4.80417 19.75 5.325 19.75H16.575C17.0958 19.75 17.5385 19.5677 17.9031 19.2031C18.2677 18.8385 18.45 18.3958 18.45 17.875Z" fill="black"/>
</svg>
