<svg width="22" height="22" viewBox="0 0 22 22" fill="none" xmlns="http://www.w3.org/2000/svg">
<path d="M20.325 7.71875C20.8458 7.77083 21.1844 8.04427 21.3406 8.53906C21.4969 9.03385 21.3927 9.46354 21.0281 9.82812L16.8875 13.8516L17.8641 19.5547C17.9422 20.0495 17.7729 20.4401 17.3562 20.7266C16.9396 21.0391 16.5099 21.0781 16.0672 20.8438L10.95 18.1875L5.83281 20.8438C5.3901 21.1042 4.96042 21.0781 4.54375 20.7656C4.12708 20.4531 3.95781 20.0495 4.03594 19.5547L5.0125 13.8516L0.871875 9.82812C0.507292 9.46354 0.403125 9.03385 0.559375 8.53906C0.715625 8.04427 1.05417 7.77083 1.575 7.71875L7.27812 6.85938L9.81719 1.70312C10.0516 1.23438 10.4292 1 10.95 1C11.4708 1 11.8484 1.23438 12.0828 1.70312L14.6219 6.85938L20.325 7.71875ZM15.5594 13.4219L20.1687 8.92969L13.8016 8.03125L10.95 2.25L8.09844 8.03125L1.73125 8.92969L6.34062 13.4219L5.24687 19.75L10.95 16.7812L16.6531 19.75L15.5594 13.4219Z" fill="black"/>
</svg>
