<svg width="22" height="22" viewBox="0 0 22 22" fill="none" xmlns="http://www.w3.org/2000/svg">
<path d="M14.4656 12.25C15.8979 12.25 17.1219 12.7708 18.1375 13.8125C19.1792 14.8281 19.7 16.0521 19.7 17.4844V19.125C19.7 19.6458 19.5177 20.0885 19.1531 20.4531C18.7885 20.8177 18.3458 21 17.825 21H4.075C3.55417 21 3.11146 20.8177 2.74688 20.4531C2.38229 20.0885 2.2 19.6458 2.2 19.125V17.4844C2.2 16.0521 2.70781 14.8281 3.72344 13.8125C4.7651 12.7708 6.00208 12.25 7.43438 12.25C7.77292 12.25 8.26771 12.3542 8.91875 12.5625C9.59583 12.7708 10.2729 12.875 10.95 12.875C11.6271 12.875 12.3042 12.7708 12.9813 12.5625C13.6583 12.3542 14.1531 12.25 14.4656 12.25ZM18.45 19.125V17.4844C18.45 16.3906 18.0594 15.4531 17.2781 14.6719C16.4969 13.8906 15.5594 13.5 14.4656 13.5C14.3094 13.5 13.8667 13.6042 13.1375 13.8125C12.4344 14.0208 11.7052 14.125 10.95 14.125C10.1948 14.125 9.4526 14.0208 8.72344 13.8125C8.02031 13.6042 7.59063 13.5 7.43438 13.5C6.34063 13.5 5.40313 13.8906 4.62188 14.6719C3.84063 15.4531 3.45 16.3906 3.45 17.4844V19.125C3.45 19.3073 3.50208 19.4505 3.60625 19.5547C3.73646 19.6849 3.89271 19.75 4.075 19.75H17.825C18.0073 19.75 18.1505 19.6849 18.2547 19.5547C18.3849 19.4505 18.45 19.3073 18.45 19.125ZM14.4656 9.55469C13.5021 10.5182 12.3302 11 10.95 11C9.56979 11 8.3849 10.5182 7.39531 9.55469C6.43177 8.5651 5.95 7.38021 5.95 6C5.95 4.61979 6.43177 3.44792 7.39531 2.48438C8.3849 1.49479 9.56979 1 10.95 1C12.3302 1 13.5021 1.49479 14.4656 2.48438C15.4552 3.44792 15.95 4.61979 15.95 6C15.95 7.38021 15.4552 8.5651 14.4656 9.55469ZM13.6063 3.34375C12.8771 2.61458 11.9917 2.25 10.95 2.25C9.90833 2.25 9.02292 2.61458 8.29375 3.34375C7.56458 4.07292 7.2 4.95833 7.2 6C7.2 7.04167 7.56458 7.92708 8.29375 8.65625C9.02292 9.38542 9.90833 9.75 10.95 9.75C11.9917 9.75 12.8771 9.38542 13.6063 8.65625C14.3354 7.92708 14.7 7.04167 14.7 6C14.7 4.95833 14.3354 4.07292 13.6063 3.34375Z" fill="black"/>
</svg>
