<svg width="22" height="22" viewBox="0 0 22 22" fill="none" xmlns="http://www.w3.org/2000/svg">
<path d="M19.0859 3.46094C20.3099 4.5026 20.9609 5.83073 21.0391 7.44531C21.1172 9.0599 20.5964 10.4271 19.4766 11.5469L11.8984 19.3594C11.6641 19.6198 11.3776 19.75 11.0391 19.75C10.7005 19.75 10.401 19.6198 10.1406 19.3594L2.60156 11.5469C1.48177 10.4271 0.960938 9.0599 1.03906 7.44531C1.11719 5.83073 1.76823 4.5026 2.99219 3.46094C3.77344 2.78385 4.64583 2.39323 5.60938 2.28906C6.57292 2.1849 7.44531 2.30208 8.22656 2.64062C9.03385 2.95312 9.71094 3.39583 10.2578 3.96875L11.0391 4.78906L11.8203 3.96875C12.8099 2.95312 13.9948 2.39323 15.375 2.28906C16.7812 2.15885 18.0182 2.54948 19.0859 3.46094ZM18.5781 10.6875C19.3854 9.85417 19.7891 8.83854 19.7891 7.64062C19.7891 6.44271 19.2943 5.36198 18.3047 4.39844C17.6276 3.85156 16.8854 3.5651 16.0781 3.53906C15.2969 3.51302 14.6198 3.63021 14.0469 3.89062C13.5 4.15104 13.0573 4.47656 12.7188 4.86719L11.0391 6.58594L9.35938 4.86719C8.99479 4.47656 8.53906 4.15104 7.99219 3.89062C7.44531 3.60417 6.76823 3.48698 5.96094 3.53906C5.17969 3.5651 4.45052 3.85156 3.77344 4.39844C2.78385 5.36198 2.28906 6.45573 2.28906 7.67969C2.28906 8.8776 2.69271 9.88021 3.5 10.6875L11.0391 18.5L18.5781 10.6875Z" fill="black"/>
</svg>
