<svg width="22" height="22" viewBox="0 0 22 22" fill="none" xmlns="http://www.w3.org/2000/svg">
<path d="M20.8438 19.8281C21.0781 20.0365 21.0781 20.2578 20.8438 20.4922L20.4922 20.8438C20.2578 21.0781 20.0365 21.0781 19.8281 20.8438L14.7891 15.8438C14.6849 15.7396 14.6328 15.6224 14.6328 15.4922V15.1016C13.0703 16.5339 11.2344 17.25 9.125 17.25C6.88542 17.25 4.97135 16.4557 3.38281 14.8672C1.79427 13.2786 1 11.3646 1 9.125C1 6.88542 1.79427 4.97135 3.38281 3.38281C4.97135 1.79427 6.88542 1 9.125 1C11.3646 1 13.2786 1.79427 14.8672 3.38281C16.4557 4.97135 17.25 6.88542 17.25 9.125C17.25 11.2344 16.5339 13.0703 15.1016 14.6328H15.4922C15.6224 14.6328 15.7396 14.6849 15.8438 14.7891L20.8438 19.8281ZM4.24219 14.0078C5.59635 15.3359 7.22396 16 9.125 16C11.026 16 12.6406 15.3359 13.9688 14.0078C15.3229 12.6536 16 11.026 16 9.125C16 7.22396 15.3229 5.60938 13.9688 4.28125C12.6406 2.92708 11.026 2.25 9.125 2.25C7.22396 2.25 5.59635 2.92708 4.24219 4.28125C2.91406 5.60938 2.25 7.22396 2.25 9.125C2.25 11.026 2.91406 12.6536 4.24219 14.0078Z" fill="black"/>
</svg>
