<svg width="22" height="22" viewBox="0 0 22 22" fill="none" xmlns="http://www.w3.org/2000/svg">
<path d="M18.9937 19.5541L18.4208 2.36795C18.4112 2.0792 18.1743 1.8501 17.8854 1.8501H4.11394C3.82501 1.8501 3.58815 2.0792 3.57851 2.36795L3.00469 19.5822C2.99987 19.7273 3.05412 19.8682 3.15505 19.9725C3.25601 20.0769 3.39498 20.1358 3.54012 20.1358H18.4592C18.4595 20.1358 18.4598 20.1358 18.4599 20.1358C18.7558 20.1358 18.9956 19.896 18.9956 19.6001C18.9956 19.5846 18.995 19.5692 18.9937 19.5541ZM4.09401 19.0644L4.63212 2.92153H17.3673L17.9053 19.0644H4.09401Z" fill="black"/>
<path d="M14.4424 5.59277C14.1466 5.59277 13.9067 5.83263 13.9067 6.12849C13.9067 7.73149 12.6026 9.03563 10.9996 9.03563C9.39657 9.03563 8.09242 7.73149 8.09242 6.12849C8.09242 5.83263 7.85257 5.59277 7.55671 5.59277C7.26085 5.59277 7.021 5.83263 7.021 6.12849C7.021 8.32227 8.80578 10.1071 10.9996 10.1071C13.1934 10.1071 14.9781 8.32227 14.9781 6.12849C14.9781 5.83263 14.7383 5.59277 14.4424 5.59277Z" fill="black"/>
</svg>
